<svg viewBox="21 18 34 34" fill="none" xmlns="http://www.w3.org/2000/svg">
<path d="M37.7738 22.0139C44.2992 21.7599 50.5363 24.9932 50.9817 30.7627C51.3895 36.0461 44.8529 36.0959 43.718 35.7986C42.5832 35.5013 41.8151 33.9709 43.8347 33.6724C45.8544 33.3739 45.5771 31.1818 44.3785 30.4518C43.3433 29.8213 40.7273 29.7182 39.7952 31.9565C38.8631 34.1949 40.2151 36.8337 42.3291 40.7728C44.0698 44.0165 43.1354 45.8452 41.901 46.9473C40.6666 48.0494 38.3777 48.2695 36.682 47.6857C34.9865 47.1019 33.7275 44.8382 34.4572 42.6578C35.187 40.4774 36.2018 39.4146 35.4244 37.9211C34.7586 36.642 32.9594 37.1047 31.6388 37.3285C30.3183 37.5524 24.492 37.4031 25.0357 31.9565C25.5795 26.5099 31.2486 22.2681 37.7738 22.0139ZM32.0824 30.7361C31.6099 31.8133 30.7495 32.6911 29.6584 33.2087C30.7495 33.7263 31.6099 34.6041 32.0824 35.6813L32.1217 35.7704L32.1609 35.6813C32.6333 34.6041 33.4938 33.7263 34.5849 33.2087C33.4938 32.691 32.6333 31.8132 32.1609 30.7361L32.1217 30.6469L32.0824 30.7361ZM36.6745 24.9377C35.964 26.5577 34.6699 27.8779 33.0289 28.6563C34.6699 29.4347 35.964 30.7546 36.6745 32.3745L36.7336 32.5091L36.7923 32.3745C37.5029 30.7546 38.7973 29.4347 40.4382 28.6563C38.7973 27.8779 37.5029 26.5577 36.7923 24.9377L36.7336 24.8036L36.6745 24.9377Z" fill="currentColor"/>
</svg>
